<svg xmlns="http://www.w3.org/2000/svg" width="1.5rem" height="1.5rem" fill="none" viewBox="0 0 24 24"><rect width="24" height="24" fill="var(--color-neutral-900)" rx="4"></rect><path fill="var(--color-neutral-100)" fill-rule="evenodd" d="M9.5 4.5A.5.5 0 0110 4h4a.5.5 0 110 1h-4a.5.5 0 01-.5-.5zm.6 13.5h3.8l1.6 2H17l-1.803-2.254c.361-.202.659-.515.84-.907l1.126-2.436a6 6 0 00.425-3.76l-.585-2.764A3 3 0 0014.068 5.5H9.932a3 3 0 00-2.935 2.38l-.585 2.763a6 6 0 00.425 3.76l1.126 2.436c.181.392.479.705.84.907L7 20h1.5l1.6-2zm-.35-3.5a.75.75 0 100 1.5.75.75 0 000-1.5zm3.75.75a.75.75 0 111.5 0 .75.75 0 01-1.5 0zM9.574 7a1 1 0 00-.997 1.071l.333 4.674a.545.545 0 00.394.485 9.812 9.812 0 005.392 0 .545.545 0 00.394-.486l.334-4.673A1 1 0 0014.426 7H9.574z" clip-rule="evenodd"></path></svg>